<svg width="1000" height="1000" viewBox="0 0 1000 1000" xmlns="http://www.w3.org/2000/svg"><defs/><path fill="#ffffff" transform="matrix(0.3153985994073468 0 0 0.3153985994073468 27.456105281247858 -45.01166621774896)" d="M 566.63134233398 1891.75915172692 C 563.83134233398 1881.95915172692 561.83134233398 1871.85915172692 562.03134233398 1861.45915172692 C 562.23134233398 1856.25915172692 562.83134233398 1851.05915172692 564.43134233398 1845.95915172692 C 565.93134233398 1840.85915172692 568.23134233398 1835.95915172692 571.43134233398 1831.65915172692 C 574.63134233398 1827.25915172692 578.43134233398 1823.45915172692 582.73134233398 1820.25915172692 C 587.03134233398 1817.05915172692 591.63134233398 1814.45915172692 596.43134233398 1812.15915172692 C 605.93134233398 1807.65915172692 616.03134233398 1804.85915172692 625.93134233398 1802.25915172692 C 635.83134233398 1799.65915172692 645.73134233398 1797.35915172692 654.83134233398 1794.15915172692 C 659.33134233398 1792.45915172692 663.63134233398 1790.55915172692 666.73134233398 1787.85915172692 C 669.93134233398 1785.15915172692 671.53134233398 1782.15915172692 671.83134233398 1778.35915172692 C 671.93134233398 1776.65915172692 671.63134233398 1773.95915172692 671.53134233398 1771.55915172692 L 671.13134233398 1767.95915172692 L 670.63134233398 1764.45915172692 C 670.23134233398 1762.15915172692 669.73134233398 1759.85915172692 669.13134233398 1757.75915172692 C 668.83134233398 1756.65915172692 668.43134233398 1755.65915172692 668.03134233398 1754.55915172692 C 667.63134233398 1753.45915172692 667.13134233398 1752.55915172692 666.53134233398 1751.05915172692 L 666.33134233398 1750.45915172692 L 666.03134233398 1749.65915172692 C 665.93134233398 1749.35915172692 665.83134233398 1749.15915172692 665.83134233398 1748.85915172692 C 665.73134233398 1748.45915172692 665.73134233398 1748.15915172692 665.63134233398 1747.75915172692 C 665.53134233398 1747.05915172692 665.63134233398 1746.05915172692 665.73134233398 1745.25915172692 C 665.93134233398 1744.45915172692 666.13134233398 1743.75915172692 666.43134233398 1743.05915172692 C 666.73134233398 1742.55915172692 667.03134233398 1742.05915172692 667.33134233398 1741.55915172692 C 667.63134233398 1741.05915172692 668.13134233398 1740.45915172692 668.43134233398 1740.25915172692 C 668.73134233398 1739.95915172692 669.03134233398 1739.65915172692 669.23134233398 1739.35915172692 L 670.03134233398 1738.65915172692 C 671.93134233398 1736.85915172692 673.73134233398 1735.15915172692 675.23134233398 1733.55915172692 C 675.93134233398 1732.75915172692 676.63134233398 1731.95915172692 676.83134233398 1731.45915172692 L 676.93134233398 1731.25915172692 C 676.93134233398 1731.25915172692 676.93134233398 1731.25915172692 676.93134233398 1731.25915172692 C 676.93134233398 1731.25915172692 676.93134233398 1731.25915172692 676.93134233398 1731.25915172692 C 676.93134233398 1731.35915172692 676.83134233398 1731.45915172692 676.83134233398 1731.55915172692 C 676.83134233398 1731.55915172692 676.73134233398 1732.35915172692 676.93134233398 1732.75915172692 C 677.03134233398 1732.95915172692 676.93134233398 1732.85915172692 677.03134233398 1732.95915172692 C 677.03134233398 1732.95915172692 677.03134233398 1733.05915172692 677.03134233398 1733.05915172692 C 677.13134233398 1733.25915172692 676.93134233398 1732.85915172692 676.33134233398 1732.55915172692 C 676.03134233398 1732.35915172692 675.73134233398 1732.15915172692 675.33134233398 1732.05915172692 L 674.73134233398 1731.85915172692 L 674.33134233398 1731.65915172692 L 673.13134233398 1731.25915172692 L 672.43134233398 1730.65915172692 C 669.93134233398 1728.55915172692 668.03134233398 1725.65915172692 667.33134233398 1722.45915172692 C 666.53134233398 1719.25915172692 666.93134233398 1715.85915172692 668.23134233398 1712.85915172692 C 668.63134233398 1712.15915172692 668.93134233398 1711.35915172692 669.43134233398 1710.75915172692 C 669.63134233398 1710.45915172692 669.93134233398 1710.05915172692 670.13134233398 1709.75915172692 C 670.33134233398 1709.45915172692 670.73134233398 1709.05915172692 670.83134233398 1708.95915172692 L 672.93134233398 1706.65915172692 L 677.13134233398 1702.05915172692 L 676.23134233398 1707.95915172692 L 673.33134233398 1701.55915172692 C 672.83134233398 1700.45915172692 672.43134233398 1699.65915172692 671.73134233398 1697.95915172692 C 671.13134233398 1696.45915172692 670.83134233398 1694.95915172692 670.53134233398 1693.45915172692 C 670.03134233398 1690.35915172692 670.33134233398 1687.25915172692 671.13134233398 1684.25915172692 C 671.33134233398 1683.55915172692 671.63134233398 1682.75915172692 671.93134233398 1682.05915172692 C 672.23134233398 1681.35915172692 672.63134233398 1680.55915172692 672.83134233398 1680.15915172692 L 674.43134233398 1677.05915172692 L 677.63134233398 1670.75915172692 L 678.03134233398 1669.95915172692 C 678.13134233398 1669.65915172692 678.33134233398 1669.45915172692 678.33134233398 1669.25915172692 C 678.53134233398 1668.85915172692 678.63134233398 1668.55915172692 678.83134233398 1668.15915172692 C 679.13134233398 1667.45915172692 679.23134233398 1666.65915172692 679.43134233398 1665.85915172692 C 679.83134233398 1662.75915172692 678.73134233398 1659.45915172692 676.53134233398 1657.25915172692 C 676.23134233398 1656.95915172692 675.93134233398 1656.75915172692 675.63134233398 1656.45915172692 L 674.23134233398 1655.35915172692 L 671.33134233398 1653.05915172692 C 670.43134233398 1652.25915172692 669.53134233398 1651.35915172692 668.63134233398 1650.55915172692 C 667.73134233398 1649.75915172692 666.83134233398 1648.85915172692 665.93134233398 1647.95915172692 L 663.33134233398 1645.25915172692 L 660.93134233398 1642.35915172692 C 660.13134233398 1641.45915172692 659.33134233398 1640.45915172692 658.63134233398 1639.45915172692 C 657.93134233398 1638.45915172692 657.13134233398 1637.45915172692 656.43134233398 1636.45915172692 C 653.73134233398 1632.35915172692 651.43134233398 1627.95915172692 649.33134233398 1623.45915172692 C 647.43134233398 1618.95915172692 645.73134233398 1614.35915172692 644.33134233398 1609.75915172692 C 643.03134233398 1605.05915172692 641.93134233398 1600.35915172692 641.13134233398 1595.65915172692 C 640.63134233398 1593.25915172692 640.43134233398 1590.95915172692 640.03134233398 1588.55915172692 L 639.23134233398 1581.55915172692 C 638.73134233398 1576.95915172692 638.03134233398 1572.45915172692 637.13134233398 1567.85915172692 C 636.23134233398 1563.35915172692 635.23134233398 1558.85915172692 634.03134233398 1554.45915172692 C 631.63134233398 1545.55915172692 628.23134233398 1536.95915172692 624.13134233398 1528.65915172692 C 619.93134233398 1520.35915172692 614.83134233398 1512.55915172692 608.93134233398 1505.25915172692 C 615.63134233398 1511.85915172692 621.53134233398 1519.25915172692 626.53134233398 1527.25915172692 C 631.53134233398 1535.25915172692 635.63134233398 1543.95915172692 638.83134233398 1552.95915172692 C 642.13134233398 1561.95915172692 644.33134233398 1571.25915172692 645.93134233398 1580.55915172692 L 647.13134233398 1587.45915172692 C 647.63134233398 1589.65915172692 648.03134233398 1591.95915172692 648.53134233398 1594.15915172692 C 649.53134233398 1598.65915172692 650.73134233398 1602.95915172692 652.13134233398 1607.25915172692 C 653.53134233398 1611.55915172692 655.33134233398 1615.65915172692 657.23134233398 1619.75915172692 C 659.23134233398 1623.75915172692 661.53134233398 1627.55915172692 664.03134233398 1631.15915172692 C 664.63134233398 1632.05915172692 665.33134233398 1632.95915172692 666.03134233398 1633.75915172692 C 666.73134233398 1634.65915172692 667.33134233398 1635.45915172692 668.13134233398 1636.35915172692 L 670.33134233398 1638.85915172692 L 672.63134233398 1641.15915172692 C 673.43134233398 1641.95915172692 674.23134233398 1642.65915172692 675.03134233398 1643.35915172692 L 677.53134233398 1645.55915172692 L 680.13134233398 1647.55915172692 L 681.43134233398 1648.55915172692 C 682.03134233398 1649.05915172692 682.63134233398 1649.45915172692 683.23134233398 1650.05915172692 C 687.83134233398 1654.35915172692 690.13134233398 1660.75915172692 689.53134233398 1666.95915172692 C 689.33134233398 1668.45915172692 689.03134233398 1670.05915172692 688.53134233398 1671.55915172692 C 688.33134233398 1672.25915172692 688.03134233398 1673.05915172692 687.63134233398 1673.75915172692 C 687.43134233398 1674.15915172692 687.33134233398 1674.35915172692 687.23134233398 1674.65915172692 L 686.83134233398 1675.45915172692 L 683.73134233398 1681.75915172692 L 682.13134233398 1684.85915172692 C 681.83134233398 1685.45915172692 681.73134233398 1685.75915172692 681.53134233398 1686.05915172692 C 681.43134233398 1686.45915172692 681.23134233398 1686.75915172692 681.13134233398 1687.15915172692 C 680.73134233398 1688.65915172692 680.63134233398 1690.25915172692 680.83134233398 1691.85915172692 C 681.03134233398 1693.45915172692 681.63134233398 1694.55915172692 682.73134233398 1696.95915172692 L 685.73134233398 1703.25915172692 L 687.23134233398 1706.45915172692 L 684.83134233398 1709.15915172692 L 680.73134233398 1713.85915172692 L 678.63134233398 1716.15915172692 C 678.43134233398 1716.35915172692 678.43134233398 1716.45915172692 678.33134233398 1716.55915172692 C 678.23134233398 1716.65915172692 678.23134233398 1716.75915172692 678.13134233398 1716.85915172692 C 678.03134233398 1717.05915172692 677.93134233398 1717.25915172692 677.83134233398 1717.45915172692 C 677.53134233398 1718.25915172692 677.43134233398 1719.15915172692 677.63134233398 1720.05915172692 C 677.83134233398 1720.95915172692 678.33134233398 1721.65915172692 679.03134233398 1722.25915172692 L 677.13134233398 1721.25915172692 C 677.73134233398 1721.45915172692 678.03134233398 1721.55915172692 678.53134233398 1721.75915172692 C 678.93134233398 1721.95915172692 679.33134233398 1722.05915172692 679.73134233398 1722.25915172692 C 680.53134233398 1722.65915172692 681.33134233398 1723.05915172692 682.03134233398 1723.55915172692 C 683.53134233398 1724.55915172692 685.33134233398 1725.95915172692 686.53134233398 1728.45915172692 C 686.73134233398 1728.75915172692 686.83134233398 1729.05915172692 686.93134233398 1729.45915172692 C 687.03134233398 1729.85915172692 687.13134233398 1730.05915172692 687.23134233398 1730.55915172692 C 687.43134233398 1731.65915172692 687.43134233398 1732.95915172692 687.23134233398 1733.65915172692 C 687.13134233398 1734.05915172692 687.03134233398 1734.45915172692 686.93134233398 1734.85915172692 C 686.83134233398 1735.15915172692 686.73134233398 1735.45915172692 686.63134233398 1735.75915172692 L 686.23134233398 1736.55915172692 L 685.83134233398 1737.15915172692 C 684.83134233398 1738.85915172692 683.83134233398 1739.95915172692 682.83134233398 1741.05915172692 C 680.83134233398 1743.15915172692 678.83134233398 1744.95915172692 677.13134233398 1746.65915172692 L 676.53134233398 1747.25915172692 C 676.33134233398 1747.45915172692 676.13134233398 1747.65915172692 676.03134233398 1747.75915172692 C 675.83134233398 1747.95915172692 675.93134233398 1747.85915172692 675.83134233398 1747.85915172692 C 675.83134233398 1747.85915172692 675.83134233398 1747.95915172692 675.73134233398 1747.95915172692 C 675.83134233398 1747.85915172692 675.83134233398 1747.75915172692 675.83134233398 1747.55915172692 C 675.93134233398 1747.35915172692 675.83134233398 1746.95915172692 675.83134233398 1746.95915172692 C 675.83134233398 1746.85915172692 675.83134233398 1746.85915172692 675.83134233398 1746.75915172692 C 675.83134233398 1746.75915172692 675.83134233398 1746.85915172692 675.83134233398 1746.85915172692 L 675.83134233398 1746.95915172692 L 675.93134233398 1747.25915172692 C 676.23134233398 1748.15915172692 676.93134233398 1749.45915172692 677.43134233398 1750.75915172692 C 677.93134233398 1752.05915172692 678.43134233398 1753.45915172692 678.83134233398 1754.75915172692 C 679.63134233398 1757.45915172692 680.13134233398 1760.15915172692 680.63134233398 1762.85915172692 L 681.13134233398 1766.85915172692 L 681.53134233398 1770.85915172692 L 681.73134233398 1774.85915172692 C 681.83134233398 1776.05915172692 681.83134233398 1777.75915172692 681.63134233398 1779.35915172692 C 681.33134233398 1782.45915172692 680.43134233398 1785.75915172692 678.73134233398 1788.65915172692 C 677.13134233398 1791.55915172692 674.83134233398 1793.85915172692 672.53134233398 1795.75915172692 C 667.73134233398 1799.55915172692 662.53134233398 1801.55915172692 657.53134233398 1803.35915172692 C 647.43134233398 1806.75915172692 637.33134233398 1808.45915172692 627.53134233398 1810.75915172692 C 617.73134233398 1812.85915172692 608.03134233398 1815.35915172692 598.93134233398 1818.95915172692 C 594.43134233398 1820.75915172692 590.03134233398 1822.95915172692 586.03134233398 1825.55915172692 C 582.03134233398 1828.25915172692 578.43134233398 1831.45915172692 575.33134233398 1835.05915172692 C 569.03134233398 1842.35915172692 565.83134233398 1851.95915172692 564.73134233398 1861.85915172692 C 564.03134233398 1871.55915172692 564.93134233398 1881.75915172692 566.63134233398 1891.75915172692 Z"/><path fill="#ffffff" transform="matrix(0.3153985994073468 0 0 0.3153985994073468 27.456105281247858 -45.01166621774896)" d="M 535.03134233398 1961.35915172692 C 516.53134233398 1950.45915172692 500.03134233398 1935.85915172692 486.23134233398 1919.15915172692 C 482.73134233398 1914.95915172692 479.53134233398 1910.65915172692 476.43134233398 1906.15915172692 C 473.43134233398 1901.65915172692 470.63134233398 1896.95915172692 467.73134233398 1892.35915172692 C 465.13134233398 1887.55915172692 462.63134233398 1882.65915172692 460.23134233398 1877.75915172692 L 457.03134233398 1870.15915172692 L 455.43134233398 1866.35915172692 C 454.93134233398 1865.05915172692 454.33134233398 1863.85915172692 453.93134233398 1862.55915172692 C 446.23134233398 1842.05915172692 442.13134233398 1820.25915172692 441.03134233398 1798.35915172692 C 440.03134233398 1776.45915172692 442.33134233398 1754.35915172692 447.83134233398 1733.05915172692 C 453.43134233398 1711.75915172692 462.33134233398 1691.35915172692 474.33134233398 1672.85915172692 C 486.63134233398 1654.55915172692 501.03134233398 1638.45915172692 514.23134233398 1621.95915172692 C 520.83134233398 1613.65915172692 527.03134233398 1605.15915172692 532.53134233398 1596.15915172692 C 537.93134233398 1587.15915172692 542.43134233398 1577.65915172692 545.83134233398 1567.65915172692 C 552.63134233398 1547.75915172692 554.83134233398 1526.05915172692 550.93134233398 1504.95915172692 C 552.43134233398 1510.05915172692 553.63134233398 1515.35915172692 554.43134233398 1520.75915172692 C 555.13134233398 1526.15915172692 555.53134233398 1531.55915172692 555.53134233398 1536.95915172692 C 555.53134233398 1542.35915172692 555.13134233398 1547.85915172692 554.33134233398 1553.25915172692 C 553.63134233398 1558.65915172692 552.53134233398 1564.05915172692 551.13134233398 1569.25915172692 C 548.33134233398 1579.85915172692 544.13134233398 1590.05915172692 538.93134233398 1599.75915172692 C 533.73134233398 1609.45915172692 527.63134233398 1618.45915172692 521.23134233398 1627.25915172692 C 514.83134233398 1636.05915172692 508.13134233398 1644.45915172692 501.63134233398 1652.85915172692 C 495.13134233398 1661.25915172692 488.83134233398 1669.75915172692 483.23134233398 1678.65915172692 C 472.03134233398 1696.25915172692 463.83134233398 1715.75915172692 458.63134233398 1735.95915172692 C 453.23134233398 1756.15915172692 451.03134233398 1777.15915172692 451.63134233398 1798.05915172692 C 452.13134233398 1818.95915172692 455.83134233398 1839.85915172692 462.23134233398 1859.85915172692 C 468.73134233398 1879.85915172692 478.33134233398 1898.85915172692 490.83134233398 1915.95915172692 C 502.83134233398 1933.05915172692 517.93134233398 1948.45915172692 535.03134233398 1961.35915172692 Z"/><path fill="#ffffff" transform="matrix(0.3153985994073468 0 0 0.3153985994073468 27.456105281247858 -45.01166621774896)" d="M 424.73134233398 1898.55915172692 C 403.73134233398 1870.15915172692 391.63134233398 1835.05915172692 389.13134233398 1799.35915172692 C 387.73134233398 1781.45915172692 388.83134233398 1763.35915172692 392.13134233398 1745.65915172692 C 393.83134233398 1736.85915172692 396.13134233398 1728.05915172692 398.93134233398 1719.45915172692 C 401.73134233398 1710.85915172692 405.03134233398 1702.45915172692 409.13134233398 1694.35915172692 C 413.13134233398 1686.25915172692 417.73134233398 1678.45915172692 422.83134233398 1670.95915172692 C 425.33134233398 1667.25915172692 427.93134233398 1663.55915172692 430.63134233398 1660.05915172692 C 433.33134233398 1656.55915172692 436.13134233398 1653.05915172692 438.93134233398 1649.65915172692 L 455.63134233398 1629.35915172692 C 461.13134233398 1622.65915172692 466.53134233398 1615.85915172692 471.43134233398 1608.75915172692 C 476.33134233398 1601.65915172692 480.83134233398 1594.35915172692 484.53134233398 1586.55915172692 C 488.23134233398 1578.75915172692 491.13134233398 1570.65915172692 493.33134233398 1562.35915172692 C 495.53134233398 1553.95915172692 496.93134233398 1545.45915172692 497.23134233398 1536.75915172692 C 497.63134233398 1528.05915172692 497.03134233398 1519.35915172692 495.53134233398 1510.65915172692 C 500.63134233398 1527.55915172692 501.23134233398 1545.85915172692 497.93134233398 1563.45915172692 C 494.83134233398 1581.05915172692 487.53134233398 1597.95915172692 478.13134233398 1613.15915172692 C 473.43134233398 1620.75915172692 468.23134233398 1628.05915172692 462.93134233398 1635.15915172692 L 446.83134233398 1656.05915172692 C 444.23134233398 1659.55915172692 441.53134233398 1662.95915172692 439.03134233398 1666.55915172692 C 436.53134233398 1670.05915172692 433.93134233398 1673.55915172692 431.63134233398 1677.15915172692 C 426.93134233398 1684.25915172692 422.63134233398 1691.65915172692 418.93134233398 1699.35915172692 C 411.43134233398 1714.75915172692 405.93134233398 1731.05915172692 402.53134233398 1747.85915172692 C 400.73134233398 1756.25915172692 399.43134233398 1764.75915172692 398.73134233398 1773.25915172692 C 398.03134233398 1781.85915172692 397.83134233398 1790.45915172692 398.03134233398 1799.05915172692 C 398.83134233398 1833.35915172692 407.73134233398 1867.65915172692 424.73134233398 1898.55915172692 Z"/><path fill="#ffffff" transform="matrix(0.3153985994073468 0 0 0.3153985994073468 27.456105281247858 -45.01166621774896)" d="M 604.83134233398 1500.35915172692 C 606.33134233398 1505.45915172692 607.53134233398 1510.75915172692 608.33134233398 1516.15915172692 C 609.03134233398 1521.55915172692 609.43134233398 1526.95915172692 609.33134233398 1532.35915172692 C 609.33134233398 1537.75915172692 608.93134233398 1543.25915172692 608.13134233398 1548.65915172692 C 607.43134233398 1554.05915172692 606.33134233398 1559.45915172692 604.93134233398 1564.65915172692 C 602.13134233398 1575.25915172692 597.93134233398 1585.45915172692 592.73134233398 1595.15915172692 C 587.53134233398 1604.85915172692 581.43134233398 1613.85915172692 575.03134233398 1622.65915172692 C 568.63134233398 1631.35915172692 561.93134233398 1639.85915172692 555.43134233398 1648.25915172692 C 548.93134233398 1656.65915172692 542.63134233398 1665.15915172692 537.03134233398 1674.05915172692 C 525.93134233398 1691.65915172692 517.53134233398 1711.15915172692 512.43134233398 1731.35915172692 C 507.03134233398 1751.55915172692 504.83134233398 1772.55915172692 505.43134233398 1793.45915172692 C 505.93134233398 1814.35915172692 509.63134233398 1835.25915172692 516.03134233398 1855.25915172692 C 522.53134233398 1875.25915172692 532.13134233398 1894.25915172692 544.63134233398 1911.35915172692 C 556.93134233398 1928.55915172692 572.03134233398 1943.95915172692 589.23134233398 1956.85915172692 C 570.73134233398 1945.95915172692 554.23134233398 1931.35915172692 540.43134233398 1914.65915172692 C 537.03134233398 1910.45915172692 533.73134233398 1906.15915172692 530.63134233398 1901.65915172692 C 527.63134233398 1897.15915172692 524.83134233398 1892.45915172692 521.83134233398 1887.85915172692 C 519.23134233398 1883.05915172692 516.73134233398 1878.15915172692 514.33134233398 1873.25915172692 L 511.13134233398 1865.65915172692 L 509.53134233398 1861.85915172692 C 509.03134233398 1860.55915172692 508.43134233398 1859.35915172692 508.03134233398 1858.05915172692 L 505.33134233398 1850.25915172692 C 504.43134233398 1847.65915172692 503.53134233398 1845.05915172692 502.83134233398 1842.45915172692 L 500.83134233398 1834.45915172692 L 499.83134233398 1830.45915172692 L 499.13134233398 1826.45915172692 C 498.23134233398 1821.05915172692 496.93134233398 1815.65915172692 496.53134233398 1810.25915172692 L 495.63134233398 1802.05915172692 L 495.43134233398 1800.05915172692 L 495.33134233398 1797.95915172692 L 495.13134233398 1793.85915172692 C 494.13134233398 1771.95915172692 496.43134233398 1749.85915172692 501.93134233398 1728.55915172692 C 507.53134233398 1707.35915172692 516.43134233398 1686.85915172692 528.43134233398 1668.35915172692 C 540.63134233398 1650.05915172692 555.13134233398 1633.95915172692 568.33134233398 1617.45915172692 C 574.93134233398 1609.15915172692 581.13134233398 1600.55915172692 586.63134233398 1591.65915172692 C 592.03134233398 1582.65915172692 596.53134233398 1573.15915172692 599.93134233398 1563.15915172692 C 606.53134233398 1543.25915172692 608.73134233398 1521.55915172692 604.83134233398 1500.35915172692 Z"/><path fill="#ffffff" transform="matrix(0.3153985994073468 0 0 0.3153985994073468 27.456105281247858 -45.01166621774896)" d="M 611.73134233398 1494.65915172692 C 640.03134233398 1498.15915172692 667.73134233398 1507.45915172692 692.93134233398 1521.55915172692 C 705.53134233398 1528.65915172692 717.43134233398 1536.85915172692 728.53134233398 1546.15915172692 C 739.63134233398 1555.45915172692 749.83134233398 1565.85915172692 759.03134233398 1577.05915172692 C 777.53134233398 1599.45915172692 791.53134233398 1625.55915172692 800.53134233398 1653.15915172692 C 809.43134233398 1680.85915172692 813.03134233398 1710.35915172692 811.23134233398 1739.45915172692 C 809.33134233398 1768.55915172692 802.23134233398 1797.25915172692 789.93134233398 1823.75915172692 C 777.53134233398 1850.15915172692 760.43134233398 1874.25915172692 739.33134233398 1894.15915172692 C 728.83134233398 1904.15915172692 717.43134233398 1913.25915172692 705.33134233398 1921.05915172692 C 693.13134233398 1928.85915172692 680.33134233398 1935.65915172692 667.03134233398 1941.05915172692 C 640.33134233398 1951.85915172692 611.63134233398 1957.65915172692 583.13134233398 1957.65915172692 C 611.53134233398 1955.25915172692 639.33134233398 1948.05915172692 664.83134233398 1936.05915172692 C 677.63134233398 1930.15915172692 689.83134233398 1923.15915172692 701.33134233398 1915.05915172692 C 712.83134233398 1906.95915172692 723.53134233398 1897.95915172692 733.43134233398 1887.95915172692 C 772.93134233398 1848.25915172692 797.23134233398 1794.35915172692 800.33134233398 1738.75915172692 C 804.13134233398 1683.15915172692 786.73134233398 1626.55915172692 752.43134233398 1582.35915172692 C 735.33134233398 1560.25915172692 714.33134233398 1541.05915172692 690.43134233398 1526.15915172692 C 666.33134233398 1511.15915172692 639.63134233398 1500.55915172692 611.73134233398 1494.65915172692 Z"/><path id="text" fill="#ffffff" transform="matrix(0.5294534355699267 0 0 0.5294534355699267 191.32040322878493 -12.868101393146091)" d="M 215.38664853294 1000.88261222737 C 211.57864853294 999.18661222737 208.45864853294 996.77061222737 206.02664853294 993.63461222737 L 214.66664853294 983.26661222737 C 218.31464853294 988.19461222737 222.47464853294 990.65861222737 227.14664853294 990.65861222737 C 233.48264853294 990.65861222737 236.65064853294 986.94661222737 236.65064853294 979.52261222737 L 236.65064853294 947.55461222737 L 213.03464853294 947.55461222737 L 213.03464853294 935.07461222737 L 252.10664853294 935.07461222737 L 252.10664853294 978.65861222737 C 252.10664853294 986.91461222737 250.05864853294 993.10661222737 245.96264853294 997.23461222737 C 241.86664853294 1001.36261222737 235.85064853294 1003.42661222737 227.91464853294 1003.42661222737 C 223.37064853294 1003.42661222737 219.19464853294 1002.57861222737 215.38664853294 1000.88261222737 Z M 281.14664853294 998.91461222737 C 275.54664853294 995.90661222737 271.16264853294 991.76261222737 267.99464853294 986.48261222737 C 264.82664853294 981.20261222737 263.24264853294 975.26661222737 263.24264853294 968.67461222737 C 263.24264853294 962.08261222737 264.82664853294 956.14661222737 267.99464853294 950.86661222737 C 271.16264853294 945.58661222737 275.54664853294 941.44261222737 281.14664853294 938.43461222737 C 286.74664853294 935.42661222737 293.03464853294 933.92261222737 300.01064853294 933.92261222737 C 306.98664853294 933.92261222737 313.25864853294 935.42661222737 318.82664853294 938.43461222737 C 324.39464853294 941.44261222737 328.77864853294 945.58661222737 331.97864853294 950.86661222737 C 335.17864853294 956.14661222737 336.77864853294 962.08261222737 336.77864853294 968.67461222737 C 336.77864853294 975.26661222737 335.17864853294 981.20261222737 331.97864853294 986.48261222737 C 328.77864853294 991.76261222737 324.39464853294 995.90661222737 318.82664853294 998.91461222737 C 313.25864853294 1001.92261222737 306.98664853294 1003.42661222737 300.01064853294 1003.42661222737 C 293.03464853294 1003.42661222737 286.74664853294 1001.92261222737 281.14664853294 998.91461222737 Z M 310.76264853294 987.44261222737 C 313.96264853294 985.61861222737 316.47464853294 983.07461222737 318.29864853294 979.81061222737 C 320.12264853294 976.54661222737 321.03464853294 972.83461222737 321.03464853294 968.67461222737 C 321.03464853294 964.51461222737 320.12264853294 960.80261222737 318.29864853294 957.53861222737 C 316.47464853294 954.27461222737 313.96264853294 951.73061222737 310.76264853294 949.90661222737 C 307.56264853294 948.08261222737 303.97864853294 947.17061222737 300.01064853294 947.17061222737 C 296.04264853294 947.17061222737 292.45864853294 948.08261222737 289.25864853294 949.90661222737 C 286.05864853294 951.73061222737 283.54664853294 954.27461222737 281.72264853294 957.53861222737 C 279.89864853294 960.80261222737 278.98664853294 964.51461222737 278.98664853294 968.67461222737 C 278.98664853294 972.83461222737 279.89864853294 976.54661222737 281.72264853294 979.81061222737 C 283.54664853294 983.07461222737 286.05864853294 985.61861222737 289.25864853294 987.44261222737 C 292.45864853294 989.26661222737 296.04264853294 990.17861222737 300.01064853294 990.17861222737 C 303.97864853294 990.17861222737 307.56264853294 989.26661222737 310.76264853294 987.44261222737 Z M 391.78664853294 987.87461222737 L 360.58664853294 987.87461222737 L 354.63464853294 1002.27461222737 L 338.69864853294 1002.27461222737 L 368.65064853294 935.07461222737 L 384.01064853294 935.07461222737 L 414.05864853294 1002.27461222737 L 397.73864853294 1002.27461222737 L 391.78664853294 987.87461222737 Z M 386.89064853294 976.06661222737 L 376.23464853294 950.33861222737 L 365.57864853294 976.06661222737 L 386.89064853294 976.06661222737 Z M 482.69864853294 935.07461222737 L 482.69864853294 1002.27461222737 L 469.93064853294 1002.27461222737 L 436.42664853294 961.47461222737 L 436.42664853294 1002.27461222737 L 421.06664853294 1002.27461222737 L 421.06664853294 935.07461222737 L 433.93064853294 935.07461222737 L 467.33864853294 975.87461222737 L 467.33864853294 935.07461222737 L 482.69864853294 935.07461222737 Z M 560.26664853294 935.07461222737 L 560.26664853294 1002.27461222737 L 547.49864853294 1002.27461222737 L 513.99464853294 961.47461222737 L 513.99464853294 1002.27461222737 L 498.63464853294 1002.27461222737 L 498.63464853294 935.07461222737 L 511.49864853294 935.07461222737 L 544.90664853294 975.87461222737 L 544.90664853294 935.07461222737 L 560.26664853294 935.07461222737 Z M 620.45864853294 987.87461222737 L 589.25864853294 987.87461222737 L 583.30664853294 1002.27461222737 L 567.37064853294 1002.27461222737 L 597.32264853294 935.07461222737 L 612.68264853294 935.07461222737 L 642.73064853294 1002.27461222737 L 626.41064853294 1002.27461222737 L 620.45864853294 987.87461222737 Z M 615.56264853294 976.06661222737 L 604.90664853294 950.33861222737 L 594.25064853294 976.06661222737 L 615.56264853294 976.06661222737 Z M 701.38664853294 975.87461222737 L 692.36264853294 985.28261222737 L 692.36264853294 1002.27461222737 L 676.90664853294 1002.27461222737 L 676.90664853294 935.07461222737 L 692.36264853294 935.07461222737 L 692.36264853294 966.46661222737 L 722.12264853294 935.07461222737 L 739.40264853294 935.07461222737 L 711.56264853294 965.02661222737 L 741.03464853294 1002.27461222737 L 722.89064853294 1002.27461222737 L 701.38664853294 975.87461222737 Z M 759.22664853294 998.91461222737 C 753.62664853294 995.90661222737 749.24264853294 991.76261222737 746.07464853294 986.48261222737 C 742.90664853294 981.20261222737 741.32264853294 975.26661222737 741.32264853294 968.67461222737 C 741.32264853294 962.08261222737 742.90664853294 956.14661222737 746.07464853294 950.86661222737 C 749.24264853294 945.58661222737 753.62664853294 941.44261222737 759.22664853294 938.43461222737 C 764.82664853294 935.42661222737 771.11464853294 933.92261222737 778.09064853294 933.92261222737 C 785.06664853294 933.92261222737 791.33864853294 935.42661222737 796.90664853294 938.43461222737 C 802.47464853294 941.44261222737 806.85864853294 945.58661222737 810.05864853294 950.86661222737 C 813.25864853294 956.14661222737 814.85864853294 962.08261222737 814.85864853294 968.67461222737 C 814.85864853294 975.26661222737 813.25864853294 981.20261222737 810.05864853294 986.48261222737 C 806.85864853294 991.76261222737 802.47464853294 995.90661222737 796.90664853294 998.91461222737 C 791.33864853294 1001.92261222737 785.06664853294 1003.42661222737 778.09064853294 1003.42661222737 C 771.11464853294 1003.42661222737 764.82664853294 1001.92261222737 759.22664853294 998.91461222737 Z M 788.84264853294 987.44261222737 C 792.04264853294 985.61861222737 794.55464853294 983.07461222737 796.37864853294 979.81061222737 C 798.20264853294 976.54661222737 799.11464853294 972.83461222737 799.11464853294 968.67461222737 C 799.11464853294 964.51461222737 798.20264853294 960.80261222737 796.37864853294 957.53861222737 C 794.55464853294 954.27461222737 792.04264853294 951.73061222737 788.84264853294 949.90661222737 C 785.64264853294 948.08261222737 782.05864853294 947.17061222737 778.09064853294 947.17061222737 C 774.12264853294 947.17061222737 770.53864853294 948.08261222737 767.33864853294 949.90661222737 C 764.13864853294 951.73061222737 761.62664853294 954.27461222737 759.80264853294 957.53861222737 C 757.97864853294 960.80261222737 757.06664853294 964.51461222737 757.06664853294 968.67461222737 C 757.06664853294 972.83461222737 757.97864853294 976.54661222737 759.80264853294 979.81061222737 C 761.62664853294 983.07461222737 764.13864853294 985.61861222737 767.33864853294 987.44261222737 C 770.53864853294 989.26661222737 774.12264853294 990.17861222737 778.09064853294 990.17861222737 C 782.05864853294 990.17861222737 785.64264853294 989.26661222737 788.84264853294 987.44261222737 Z M 888.20264853294 935.07461222737 L 888.20264853294 1002.27461222737 L 875.43464853294 1002.27461222737 L 841.93064853294 961.47461222737 L 841.93064853294 1002.27461222737 L 826.57064853294 1002.27461222737 L 826.57064853294 935.07461222737 L 839.43464853294 935.07461222737 L 872.84264853294 975.87461222737 L 872.84264853294 935.07461222737 L 888.20264853294 935.07461222737 Z M 948.39464853294 987.87461222737 L 917.19464853294 987.87461222737 L 911.24264853294 1002.27461222737 L 895.30664853294 1002.27461222737 L 925.25864853294 935.07461222737 L 940.61864853294 935.07461222737 L 970.66664853294 1002.27461222737 L 954.34664853294 1002.27461222737 L 948.39464853294 987.87461222737 Z M 943.49864853294 976.06661222737 L 932.84264853294 950.33861222737 L 922.18664853294 976.06661222737 L 943.49864853294 976.06661222737 Z M 1020.49064853294 1002.27461222737 L 1007.53064853294 983.55461222737 L 1006.76264853294 983.55461222737 L 993.22664853294 983.55461222737 L 993.22664853294 1002.27461222737 L 977.67464853294 1002.27461222737 L 977.67464853294 935.07461222737 L 1006.76264853294 935.07461222737 C 1012.71464853294 935.07461222737 1017.88264853294 936.06661222737 1022.26664853294 938.05061222737 C 1026.65064853294 940.03461222737 1030.02664853294 942.85061222737 1032.39464853294 946.49861222737 C 1034.76264853294 950.14661222737 1035.94664853294 954.46661222737 1035.94664853294 959.45861222737 C 1035.94664853294 964.45061222737 1034.74664853294 968.75461222737 1032.34664853294 972.37061222737 C 1029.94664853294 975.98661222737 1026.53864853294 978.75461222737 1022.12264853294 980.67461222737 L 1037.19464853294 1002.27461222737 L 1020.49064853294 1002.27461222737 Z M 1016.55464853294 950.77061222737 C 1014.12264853294 948.75461222737 1010.57064853294 947.74661222737 1005.89864853294 947.74661222737 L 993.22664853294 947.74661222737 L 993.22664853294 971.17061222737 L 1005.89864853294 971.17061222737 C 1010.57064853294 971.17061222737 1014.12264853294 970.14661222737 1016.55464853294 968.09861222737 C 1018.98664853294 966.05061222737 1020.20264853294 963.17061222737 1020.20264853294 959.45861222737 C 1020.20264853294 955.68261222737 1018.98664853294 952.78661222737 1016.55464853294 950.77061222737 Z M 1054.90664853294 1001.26661222737 C 1049.94664853294 999.82661222737 1045.96264853294 997.95461222737 1042.95464853294 995.65061222737 L 1048.23464853294 983.93861222737 C 1051.11464853294 986.05061222737 1054.53864853294 987.74661222737 1058.50664853294 989.02661222737 C 1062.47464853294 990.30661222737 1066.44264853294 990.94661222737 1070.41064853294 990.94661222737 C 1074.82664853294 990.94661222737 1078.09064853294 990.29061222737 1080.20264853294 988.97861222737 C 1082.31464853294 987.66661222737 1083.37064853294 985.92261222737 1083.37064853294 983.74661222737 C 1083.37064853294 982.14661222737 1082.74664853294 980.81861222737 1081.49864853294 979.76261222737 C 1080.25064853294 978.70661222737 1078.65064853294 977.85861222737 1076.69864853294 977.21861222737 C 1074.74664853294 976.57861222737 1072.10664853294 975.87461222737 1068.77864853294 975.10661222737 C 1063.65864853294 973.89061222737 1059.46664853294 972.67461222737 1056.20264853294 971.45861222737 C 1052.93864853294 970.24261222737 1050.13864853294 968.29061222737 1047.80264853294 965.60261222737 C 1045.46664853294 962.91461222737 1044.29864853294 959.33061222737 1044.29864853294 954.85061222737 C 1044.29864853294 950.94661222737 1045.35464853294 947.41061222737 1047.46664853294 944.24261222737 C 1049.57864853294 941.07461222737 1052.76264853294 938.56261222737 1057.01864853294 936.70661222737 C 1061.27464853294 934.85061222737 1066.47464853294 933.92261222737 1072.61864853294 933.92261222737 C 1076.90664853294 933.92261222737 1081.09864853294 934.43461222737 1085.19464853294 935.45861222737 C 1089.29064853294 936.48261222737 1092.87464853294 937.95461222737 1095.94664853294 939.87461222737 L 1091.14664853294 951.68261222737 C 1084.93864853294 948.16261222737 1078.73064853294 946.40261222737 1072.52264853294 946.40261222737 C 1068.17064853294 946.40261222737 1064.95464853294 947.10661222737 1062.87464853294 948.51461222737 C 1060.79464853294 949.92261222737 1059.75464853294 951.77861222737 1059.75464853294 954.08261222737 C 1059.75464853294 956.38661222737 1060.95464853294 958.09861222737 1063.35464853294 959.21861222737 C 1065.75464853294 960.33861222737 1069.41864853294 961.44261222737 1074.34664853294 962.53061222737 C 1079.46664853294 963.74661222737 1083.65864853294 964.96261222737 1086.92264853294 966.17861222737 C 1090.18664853294 967.39461222737 1092.98664853294 969.31461222737 1095.32264853294 971.93861222737 C 1097.65864853294 974.56261222737 1098.82664853294 978.11461222737 1098.82664853294 982.59461222737 C 1098.82664853294 986.43461222737 1097.75464853294 989.93861222737 1095.61064853294 993.10661222737 C 1093.46664853294 996.27461222737 1090.25064853294 998.78661222737 1085.96264853294 1000.64261222737 C 1081.67464853294 1002.49861222737 1076.45864853294 1003.42661222737 1070.31464853294 1003.42661222737 C 1065.00264853294 1003.42661222737 1059.86664853294 1002.70661222737 1054.90664853294 1001.26661222737 Z M 1133.96264853294 975.87461222737 L 1124.93864853294 985.28261222737 L 1124.93864853294 1002.27461222737 L 1109.48264853294 1002.27461222737 L 1109.48264853294 935.07461222737 L 1124.93864853294 935.07461222737 L 1124.93864853294 966.46661222737 L 1154.69864853294 935.07461222737 L 1171.97864853294 935.07461222737 L 1144.13864853294 965.02661222737 L 1173.61064853294 1002.27461222737 L 1155.46664853294 1002.27461222737 L 1133.96264853294 975.87461222737 Z M 1221.80264853294 987.87461222737 L 1190.60264853294 987.87461222737 L 1184.65064853294 1002.27461222737 L 1168.71464853294 1002.27461222737 L 1198.66664853294 935.07461222737 L 1214.02664853294 935.07461222737 L 1244.07464853294 1002.27461222737 L 1227.75464853294 1002.27461222737 L 1221.80264853294 987.87461222737 Z M 1216.90664853294 976.06661222737 L 1206.25064853294 950.33861222737 L 1195.59464853294 976.06661222737 L 1216.90664853294 976.06661222737 Z"/></svg>